<?xml version="1.0" standalone="no"?>
<!DOCTYPE svg PUBLIC "-//W3C//DTD SVG 20010904//EN"
 "http://www.w3.org/TR/2001/REC-SVG-20010904/DTD/svg10.dtd">
<svg version="1.0" xmlns="http://www.w3.org/2000/svg"
 width="512.000000pt" height="512.000000pt" viewBox="0 0 512.000000 512.000000"
 preserveAspectRatio="xMidYMid meet">
<metadata>
Created by potrace 1.11, written by Peter Selinger 2001-2013
</metadata>
<g transform="translate(0.000000,512.000000) scale(0.100000,-0.100000)"
fill="#000000" stroke="none">
<path d="M3135 5072 c-16 -2 -48 -8 -70 -14 -22 -7 -42 -12 -45 -13 -11 -3
-129 -38 -205 -61 -294 -91 -554 -300 -705 -569 -56 -100 -120 -288 -137 -404
-10 -70 -6 -309 7 -366 6 -27 12 -57 14 -65 5 -27 19 -75 25 -85 3 -5 6 -15 7
-21 3 -18 95 -198 110 -215 8 -8 14 -18 14 -22 0 -6 22 -39 78 -117 18 -25 40
-56 50 -69 9 -14 27 -37 40 -52 31 -38 28 -50 -10 -44 -18 4 -53 9 -78 11 -25
3 -56 7 -70 9 -57 7 -189 17 -240 19 -62 2 -139 41 -368 189 -40 26 -75 47
-77 47 -2 0 -23 13 -47 29 -123 83 -229 93 -329 33 -46 -28 -66 -52 -137 -160
-131 -199 -151 -232 -145 -232 3 0 -1 -8 -9 -17 -55 -65 -273 -504 -370 -747
-22 -56 -49 -121 -60 -146 -11 -24 -21 -49 -22 -55 -2 -5 -15 -48 -29 -95 -77
-246 -93 -494 -41 -646 31 -93 105 -235 154 -297 97 -123 192 -219 295 -299
65 -51 222 -148 238 -148 6 0 18 -6 26 -14 33 -29 237 -128 394 -190 133 -53
297 -106 377 -121 8 -2 15 -4 15 -5 0 -1 11 -3 25 -5 14 -2 54 -9 90 -15 70
-13 79 -14 155 -24 28 -4 66 -9 85 -11 240 -33 745 -39 920 -11 14 2 51 7 84
11 32 4 68 8 80 10 11 2 39 6 60 10 21 3 48 7 60 10 12 3 32 7 46 9 14 2 64
14 112 25 47 11 101 23 120 26 18 3 49 10 68 15 19 5 46 11 60 14 25 5 118 32
195 57 52 17 299 139 303 150 2 5 9 9 15 9 19 0 117 69 171 119 180 170 232
244 287 416 9 30 12 43 27 140 9 55 7 272 -2 320 -4 17 -9 64 -11 105 -12 177
-37 275 -103 407 -81 160 -266 349 -429 439 -134 74 -242 175 -279 263 -15 36
-19 127 -6 135 4 2 44 7 87 10 145 11 208 19 280 37 22 5 48 11 57 14 37 8
104 44 130 67 64 61 75 133 29 187 -34 39 -30 53 25 90 68 47 89 114 65 215
-15 64 -33 96 -77 140 -39 39 -102 76 -129 76 -11 0 -15 11 -16 38 0 20 -2 46
-3 57 -2 11 -6 45 -11 75 -4 30 -9 58 -11 61 -2 3 -6 19 -8 35 -3 16 -8 40
-11 54 -4 14 -7 30 -8 35 -2 6 -6 16 -10 23 -5 6 -6 12 -3 12 2 0 -11 46 -30
103 -20 56 -37 107 -38 112 -15 54 -100 219 -158 306 -63 94 -240 281 -308
326 -25 16 -71 55 -103 85 -71 70 -185 134 -269 154 -10 2 -28 7 -40 10 -27 7
-180 12 -223 6z"/>
</g>
</svg>
